<mxfile host="app.diagrams.net" agent="Mozilla/5.0 (Macintosh; Intel Mac OS X 10_15_7) AppleWebKit/537.36 (KHTML, like Gecko) Chrome/136.0.0.0 Safari/537.36" version="27.0.6">
  <diagram name="Page-1" id="hIzWn2SBLk9P-L7SLGz2">
    <mxGraphModel grid="1" page="1" gridSize="10" guides="1" tooltips="1" connect="1" arrows="1" fold="1" pageScale="1" pageWidth="827" pageHeight="1169" math="0" shadow="0">
      <root>
        <mxCell id="0" />
        <mxCell id="1" parent="0" />
        <mxCell id="wVAuduDZPqJUXdJXxRA9-3" value="" style="endArrow=none;dashed=1;html=1;rounded=0;" edge="1" parent="1">
          <mxGeometry width="50" height="50" relative="1" as="geometry">
            <mxPoint x="164" y="1550" as="sourcePoint" />
            <mxPoint x="164.23000000000002" y="820" as="targetPoint" />
          </mxGeometry>
        </mxCell>
        <mxCell id="Ek8A23UkqYiL205dJHVW-1" value="&lt;b&gt;Utilisateur(client,vendeur)&lt;/b&gt;" style="shape=umlActor;verticalLabelPosition=bottom;verticalAlign=top;html=1;outlineConnect=0;" vertex="1" parent="1">
          <mxGeometry x="150" y="460" width="30" height="60" as="geometry" />
        </mxCell>
        <mxCell id="Ek8A23UkqYiL205dJHVW-7" value="" style="html=1;points=[[0,0,0,0,5],[0,1,0,0,-5],[1,0,0,0,5],[1,1,0,0,-5]];perimeter=orthogonalPerimeter;outlineConnect=0;targetShapes=umlLifeline;portConstraint=eastwest;newEdgeStyle={&quot;curved&quot;:0,&quot;rounded&quot;:0};" vertex="1" parent="1">
          <mxGeometry x="160" y="560" width="10" height="990" as="geometry" />
        </mxCell>
        <mxCell id="Ek8A23UkqYiL205dJHVW-11" value=":&lt;b&gt;système&lt;/b&gt;" style="shape=umlLifeline;perimeter=lifelinePerimeter;whiteSpace=wrap;html=1;container=1;dropTarget=0;collapsible=0;recursiveResize=0;outlineConnect=0;portConstraint=eastwest;newEdgeStyle={&quot;curved&quot;:0,&quot;rounded&quot;:0};" vertex="1" parent="1">
          <mxGeometry x="350" y="481" width="100" height="1079" as="geometry" />
        </mxCell>
        <mxCell id="Ek8A23UkqYiL205dJHVW-13" value="" style="html=1;points=[[0,0,0,0,5],[0,1,0,0,-5],[1,0,0,0,5],[1,1,0,0,-5]];perimeter=orthogonalPerimeter;outlineConnect=0;targetShapes=umlLifeline;portConstraint=eastwest;newEdgeStyle={&quot;curved&quot;:0,&quot;rounded&quot;:0};" vertex="1" parent="Ek8A23UkqYiL205dJHVW-11">
          <mxGeometry x="45" y="317" width="10" height="93" as="geometry" />
        </mxCell>
        <mxCell id="Ek8A23UkqYiL205dJHVW-36" value="" style="html=1;align=left;spacingLeft=2;endArrow=block;rounded=0;edgeStyle=orthogonalEdgeStyle;curved=0;rounded=0;strokeColor=default;verticalAlign=middle;fontFamily=Helvetica;fontSize=11;fontColor=default;labelBackgroundColor=default;" edge="1" parent="Ek8A23UkqYiL205dJHVW-11" source="wVAuduDZPqJUXdJXxRA9-6">
          <mxGeometry x="0.0016" relative="1" as="geometry">
            <mxPoint x="59" y="558" as="sourcePoint" />
            <Array as="points">
              <mxPoint x="90" y="558" />
              <mxPoint x="90" y="581" />
            </Array>
            <mxPoint as="offset" />
            <mxPoint x="59" y="581" as="targetPoint" />
          </mxGeometry>
        </mxCell>
        <mxCell id="wVAuduDZPqJUXdJXxRA9-6" value="" style="html=1;points=[[0,0,0,0,5],[0,1,0,0,-5],[1,0,0,0,5],[1,1,0,0,-5]];perimeter=orthogonalPerimeter;outlineConnect=0;targetShapes=umlLifeline;portConstraint=eastwest;newEdgeStyle={&quot;curved&quot;:0,&quot;rounded&quot;:0};" vertex="1" parent="Ek8A23UkqYiL205dJHVW-11">
          <mxGeometry x="45" y="499" width="10" height="401" as="geometry" />
        </mxCell>
        <mxCell id="Ek8A23UkqYiL205dJHVW-35" value="" style="html=1;points=[[0,0,0,0,5],[0,1,0,0,-5],[1,0,0,0,5],[1,1,0,0,-5]];perimeter=orthogonalPerimeter;outlineConnect=0;targetShapes=umlLifeline;portConstraint=eastwest;newEdgeStyle={&quot;curved&quot;:0,&quot;rounded&quot;:0};fontFamily=Helvetica;fontSize=11;fontColor=default;labelBackgroundColor=default;" vertex="1" parent="Ek8A23UkqYiL205dJHVW-11">
          <mxGeometry x="50" y="563" width="10" height="45" as="geometry" />
        </mxCell>
        <mxCell id="Ek8A23UkqYiL205dJHVW-12" value="&lt;font style=&quot;vertical-align: inherit;&quot;&gt;&lt;font style=&quot;vertical-align: inherit;&quot;&gt;&lt;b&gt;:BDD&lt;/b&gt;&lt;/font&gt;&lt;/font&gt;" style="shape=umlLifeline;perimeter=lifelinePerimeter;whiteSpace=wrap;html=1;container=1;dropTarget=0;collapsible=0;recursiveResize=0;outlineConnect=0;portConstraint=eastwest;newEdgeStyle={&quot;curved&quot;:0,&quot;rounded&quot;:0};" vertex="1" parent="1">
          <mxGeometry x="620" y="480" width="100" height="1080" as="geometry" />
        </mxCell>
        <mxCell id="wVAuduDZPqJUXdJXxRA9-5" value="" style="html=1;points=[[0,0,0,0,5],[0,1,0,0,-5],[1,0,0,0,5],[1,1,0,0,-5]];perimeter=orthogonalPerimeter;outlineConnect=0;targetShapes=umlLifeline;portConstraint=eastwest;newEdgeStyle={&quot;curved&quot;:0,&quot;rounded&quot;:0};" vertex="1" parent="Ek8A23UkqYiL205dJHVW-12">
          <mxGeometry x="45" y="330" width="10" height="52" as="geometry" />
        </mxCell>
        <mxCell id="wVAuduDZPqJUXdJXxRA9-9" value="" style="html=1;points=[[0,0,0,0,5],[0,1,0,0,-5],[1,0,0,0,5],[1,1,0,0,-5]];perimeter=orthogonalPerimeter;outlineConnect=0;targetShapes=umlLifeline;portConstraint=eastwest;newEdgeStyle={&quot;curved&quot;:0,&quot;rounded&quot;:0};" vertex="1" parent="Ek8A23UkqYiL205dJHVW-12">
          <mxGeometry x="45" y="690" width="10" height="60" as="geometry" />
        </mxCell>
        <mxCell id="Ek8A23UkqYiL205dJHVW-14" value="" style="endArrow=classic;html=1;rounded=0;" edge="1" parent="1">
          <mxGeometry width="50" height="50" relative="1" as="geometry">
            <mxPoint x="170" y="797" as="sourcePoint" />
            <mxPoint x="395" y="797" as="targetPoint" />
          </mxGeometry>
        </mxCell>
        <mxCell id="Ek8A23UkqYiL205dJHVW-15" value="&lt;b&gt;1. Demande détaillée de produit&amp;nbsp;&lt;/b&gt;&lt;div&gt;&lt;b&gt;&lt;font style=&quot;color: rgb(51, 51, 255); background-color: rgb(206, 210, 217);&quot;&gt;GET&amp;nbsp; &amp;nbsp; /api/products/{productId}&lt;/font&gt;&lt;/b&gt;&lt;/div&gt;" style="text;html=1;align=center;verticalAlign=middle;resizable=0;points=[];autosize=1;strokeColor=none;fillColor=none;" vertex="1" parent="1">
          <mxGeometry x="179" y="759" width="210" height="40" as="geometry" />
        </mxCell>
        <mxCell id="Ek8A23UkqYiL205dJHVW-19" value="&lt;b&gt;1.1. Requête d&#39;information sur le produit&lt;/b&gt;&lt;div&gt;&lt;b&gt;&lt;font style=&quot;color: rgb(51, 51, 255); background-color: rgb(206, 210, 217);&quot;&gt;GET&amp;nbsp; &amp;nbsp; /api/products/{productId}&lt;/font&gt;&lt;/b&gt;&lt;b&gt;&lt;/b&gt;&lt;/div&gt;" style="text;html=1;align=center;verticalAlign=middle;resizable=0;points=[];autosize=1;strokeColor=none;fillColor=none;" vertex="1" parent="1">
          <mxGeometry x="412.5" y="771" width="250" height="40" as="geometry" />
        </mxCell>
        <mxCell id="Ek8A23UkqYiL205dJHVW-20" value="" style="endArrow=classic;html=1;rounded=0;" edge="1" parent="1">
          <mxGeometry width="50" height="50" relative="1" as="geometry">
            <mxPoint x="405" y="810" as="sourcePoint" />
            <mxPoint x="669.5" y="810" as="targetPoint" />
          </mxGeometry>
        </mxCell>
        <mxCell id="Ek8A23UkqYiL205dJHVW-21" value="" style="endArrow=open;endSize=12;dashed=1;html=1;rounded=0;" edge="1" parent="1">
          <mxGeometry x="-0.0407" y="3" width="160" relative="1" as="geometry">
            <mxPoint x="664" y="863" as="sourcePoint" />
            <mxPoint x="400" y="863" as="targetPoint" />
            <mxPoint x="1" as="offset" />
          </mxGeometry>
        </mxCell>
        <mxCell id="Ek8A23UkqYiL205dJHVW-22" value="&lt;b&gt;1.1.1. Renvoie détails du produit.&lt;/b&gt;" style="text;html=1;align=center;verticalAlign=middle;resizable=0;points=[];autosize=1;strokeColor=none;fillColor=none;" vertex="1" parent="1">
          <mxGeometry x="428.5" y="829" width="210" height="30" as="geometry" />
        </mxCell>
        <mxCell id="Ek8A23UkqYiL205dJHVW-23" value="" style="endArrow=open;endSize=12;dashed=1;html=1;rounded=0;" edge="1" parent="1">
          <mxGeometry x="-0.0407" y="3" width="160" relative="1" as="geometry">
            <mxPoint x="395" y="889" as="sourcePoint" />
            <mxPoint x="170" y="889" as="targetPoint" />
            <mxPoint x="1" as="offset" />
          </mxGeometry>
        </mxCell>
        <mxCell id="Ek8A23UkqYiL205dJHVW-24" value="&lt;b&gt;1-2. Interface de détail du produit.&lt;/b&gt;" style="text;html=1;align=center;verticalAlign=middle;resizable=0;points=[];autosize=1;strokeColor=none;fillColor=none;" vertex="1" parent="1">
          <mxGeometry x="181" y="851" width="220" height="30" as="geometry" />
        </mxCell>
        <mxCell id="Ek8A23UkqYiL205dJHVW-25" value="&lt;b&gt;2. Saisir le commentaire (texte, note).&lt;/b&gt;" style="text;html=1;align=center;verticalAlign=middle;resizable=0;points=[];autosize=1;strokeColor=none;fillColor=none;" vertex="1" parent="1">
          <mxGeometry x="170" y="954" width="240" height="30" as="geometry" />
        </mxCell>
        <mxCell id="Ek8A23UkqYiL205dJHVW-27" value="" style="endArrow=open;endFill=1;endSize=12;html=1;rounded=0;" edge="1" parent="1">
          <mxGeometry width="160" relative="1" as="geometry">
            <mxPoint x="170" y="984" as="sourcePoint" />
            <mxPoint x="394" y="984" as="targetPoint" />
          </mxGeometry>
        </mxCell>
        <mxCell id="Ek8A23UkqYiL205dJHVW-29" value="&lt;b&gt;3. Valider&lt;/b&gt;&lt;div&gt;&lt;b&gt;&lt;font style=&quot;color: rgb(51, 51, 255); background-color: rgb(206, 210, 217);&quot;&gt;POST&amp;nbsp; &amp;nbsp;/api/reviews?productId&lt;/font&gt;&lt;/b&gt;&lt;b&gt;&lt;/b&gt;&lt;/div&gt;" style="text;html=1;align=center;verticalAlign=middle;resizable=0;points=[];autosize=1;strokeColor=none;fillColor=none;" vertex="1" parent="1">
          <mxGeometry x="182.75" y="989" width="200" height="40" as="geometry" />
        </mxCell>
        <mxCell id="Ek8A23UkqYiL205dJHVW-30" value="" style="endArrow=classic;html=1;rounded=0;" edge="1" parent="1">
          <mxGeometry width="50" height="50" relative="1" as="geometry">
            <mxPoint x="171" y="1027" as="sourcePoint" />
            <mxPoint x="395" y="1027" as="targetPoint" />
          </mxGeometry>
        </mxCell>
        <mxCell id="Ek8A23UkqYiL205dJHVW-38" value="&lt;b&gt;&lt;font style=&quot;font-size: 13px;&quot;&gt;3.1 Vérification du commentaire&lt;/font&gt;&lt;/b&gt;" style="text;html=1;align=center;verticalAlign=middle;resizable=0;points=[];autosize=1;strokeColor=none;fillColor=none;fontFamily=Helvetica;fontSize=11;fontColor=default;labelBackgroundColor=default;" vertex="1" parent="1">
          <mxGeometry x="433" y="1036" width="220" height="30" as="geometry" />
        </mxCell>
        <mxCell id="Ek8A23UkqYiL205dJHVW-39" value="&lt;b&gt;alt&lt;/b&gt;" style="shape=umlFrame;whiteSpace=wrap;html=1;pointerEvents=0;fontFamily=Helvetica;fontSize=11;fontColor=default;labelBackgroundColor=default;" vertex="1" parent="1">
          <mxGeometry x="100" y="1120" width="640" height="300" as="geometry" />
        </mxCell>
        <mxCell id="Ek8A23UkqYiL205dJHVW-40" value="&lt;b&gt;3.1.1 Enregistrer un commentaire (texte, note)&lt;/b&gt;&lt;div&gt;&lt;b&gt;&lt;font style=&quot;color: rgb(51, 51, 255); background-color: rgb(206, 210, 217);&quot;&gt;POST&amp;nbsp; &amp;nbsp;/api/reviews?productId&lt;/font&gt;&lt;/b&gt;&lt;b&gt;&lt;/b&gt;&lt;/div&gt;" style="text;html=1;align=center;verticalAlign=middle;resizable=0;points=[];autosize=1;strokeColor=none;fillColor=none;" vertex="1" parent="1">
          <mxGeometry x="395.5" y="1132" width="280" height="40" as="geometry" />
        </mxCell>
        <mxCell id="Ek8A23UkqYiL205dJHVW-41" value="" style="endArrow=open;endFill=1;endSize=12;html=1;rounded=0;" edge="1" parent="1">
          <mxGeometry width="160" relative="1" as="geometry">
            <mxPoint x="406" y="1171" as="sourcePoint" />
            <mxPoint x="665.5" y="1171" as="targetPoint" />
          </mxGeometry>
        </mxCell>
        <mxCell id="Ek8A23UkqYiL205dJHVW-42" value="&lt;b&gt;&lt;font style=&quot;font-size: 13px;&quot;&gt;[Commentaire valide]&lt;/font&gt;&lt;/b&gt;" style="text;html=1;align=center;verticalAlign=middle;resizable=0;points=[];autosize=1;strokeColor=none;fillColor=none;fontFamily=Helvetica;fontSize=11;fontColor=default;labelBackgroundColor=default;" vertex="1" parent="1">
          <mxGeometry x="163" y="1128" width="160" height="30" as="geometry" />
        </mxCell>
        <mxCell id="Ek8A23UkqYiL205dJHVW-43" value="&lt;b&gt;3.1.2 Confirmer l&#39;enregistrement.&lt;/b&gt;" style="text;html=1;align=center;verticalAlign=middle;resizable=0;points=[];autosize=1;strokeColor=none;fillColor=none;" vertex="1" parent="1">
          <mxGeometry x="435.5" y="1192" width="210" height="30" as="geometry" />
        </mxCell>
        <mxCell id="Ek8A23UkqYiL205dJHVW-44" value="" style="endArrow=open;endSize=12;dashed=1;html=1;rounded=0;" edge="1" parent="1">
          <mxGeometry x="-0.0407" y="3" width="160" relative="1" as="geometry">
            <mxPoint x="666" y="1228.5" as="sourcePoint" />
            <mxPoint x="400" y="1229" as="targetPoint" />
            <mxPoint x="1" as="offset" />
          </mxGeometry>
        </mxCell>
        <mxCell id="Ek8A23UkqYiL205dJHVW-45" value="" style="endArrow=open;endSize=12;dashed=1;html=1;rounded=0;" edge="1" parent="1">
          <mxGeometry x="-0.0407" y="3" width="160" relative="1" as="geometry">
            <mxPoint x="391" y="1271" as="sourcePoint" />
            <mxPoint x="171" y="1270.5" as="targetPoint" />
            <mxPoint x="1" as="offset" />
          </mxGeometry>
        </mxCell>
        <mxCell id="Ek8A23UkqYiL205dJHVW-46" value="&lt;b&gt;3.1.3 Confirmer la publication&lt;/b&gt;" style="text;html=1;align=center;verticalAlign=middle;resizable=0;points=[];autosize=1;strokeColor=none;fillColor=none;" vertex="1" parent="1">
          <mxGeometry x="181.5" y="1239" width="190" height="30" as="geometry" />
        </mxCell>
        <mxCell id="Ek8A23UkqYiL205dJHVW-48" value="" style="endArrow=none;dashed=1;html=1;rounded=0;strokeColor=default;align=center;verticalAlign=middle;fontFamily=Helvetica;fontSize=11;fontColor=default;labelBackgroundColor=default;entryX=0.998;entryY=0.586;entryDx=0;entryDy=0;entryPerimeter=0;" edge="1" parent="1" target="Ek8A23UkqYiL205dJHVW-39">
          <mxGeometry width="50" height="50" relative="1" as="geometry">
            <mxPoint x="101" y="1297" as="sourcePoint" />
            <mxPoint x="720" y="1297" as="targetPoint" />
          </mxGeometry>
        </mxCell>
        <mxCell id="Ek8A23UkqYiL205dJHVW-49" value="&lt;b&gt;&lt;font style=&quot;font-size: 13px;&quot;&gt;[Commentaire non&amp;nbsp; valide]&lt;/font&gt;&lt;/b&gt;" style="text;html=1;align=center;verticalAlign=middle;resizable=0;points=[];autosize=1;strokeColor=none;fillColor=none;fontFamily=Helvetica;fontSize=11;fontColor=default;labelBackgroundColor=default;" vertex="1" parent="1">
          <mxGeometry x="164" y="1305" width="190" height="30" as="geometry" />
        </mxCell>
        <mxCell id="Ek8A23UkqYiL205dJHVW-50" value="" style="endArrow=open;endSize=12;dashed=1;html=1;rounded=0;" edge="1" parent="1">
          <mxGeometry x="-0.0407" y="3" width="160" relative="1" as="geometry">
            <mxPoint x="392.25" y="1380.5" as="sourcePoint" />
            <mxPoint x="170" y="1380" as="targetPoint" />
            <mxPoint x="1" as="offset" />
          </mxGeometry>
        </mxCell>
        <mxCell id="Ek8A23UkqYiL205dJHVW-51" value="&lt;b&gt;3.1.4 Afficher un message d&#39;erreur.&lt;/b&gt;" style="text;html=1;align=center;verticalAlign=middle;resizable=0;points=[];autosize=1;strokeColor=none;fillColor=none;" vertex="1" parent="1">
          <mxGeometry x="172.75" y="1342.5" width="220" height="30" as="geometry" />
        </mxCell>
        <mxCell id="Ek8A23UkqYiL205dJHVW-54" value="&lt;b&gt;loop&lt;/b&gt;" style="shape=umlFrame;whiteSpace=wrap;html=1;pointerEvents=0;fontFamily=Helvetica;fontSize=11;fontColor=default;labelBackgroundColor=default;" vertex="1" parent="1">
          <mxGeometry x="80" y="900" width="680" height="560" as="geometry" />
        </mxCell>
        <mxCell id="Ek8A23UkqYiL205dJHVW-55" value="&lt;b&gt;&lt;font style=&quot;font-size: 13px;&quot;&gt;[tant que le visiteur souhaite commenter]&lt;/font&gt;&lt;/b&gt;" style="text;html=1;align=center;verticalAlign=middle;resizable=0;points=[];autosize=1;strokeColor=none;fillColor=none;" vertex="1" parent="1">
          <mxGeometry x="134" y="900" width="280" height="30" as="geometry" />
        </mxCell>
        <mxCell id="gR7WO6gFQNKqUNs7694a-4" value="&lt;b&gt;&amp;nbsp;sd&amp;nbsp; Commenter un produit&lt;/b&gt;" style="shape=umlFrame;whiteSpace=wrap;html=1;pointerEvents=0;width=188;height=30;align=left;" vertex="1" parent="1">
          <mxGeometry x="40" y="410" width="760" height="1170" as="geometry" />
        </mxCell>
        <mxCell id="NSmej_YWk2X7fdk1hRJO-1" value="&lt;b&gt;Ref&lt;/b&gt;" style="shape=umlFrame;whiteSpace=wrap;html=1;pointerEvents=0;swimlaneFillColor=default;" vertex="1" parent="1">
          <mxGeometry x="80" y="580" width="681" height="150" as="geometry" />
        </mxCell>
        <mxCell id="NSmej_YWk2X7fdk1hRJO-2" value="&lt;font style=&quot;font-size: 22px;&quot;&gt;&lt;b style=&quot;&quot;&gt;S&#39;authentifier&lt;/b&gt;&lt;/font&gt;" style="text;html=1;align=center;verticalAlign=middle;resizable=0;points=[];autosize=1;strokeColor=none;fillColor=none;" vertex="1" parent="1">
          <mxGeometry x="336" y="634" width="160" height="40" as="geometry" />
        </mxCell>
      </root>
    </mxGraphModel>
  </diagram>
</mxfile>
